# xmcd
#
# Track frame offsets: 
#        150
#        49909
#        96083
#        132350
#        155483
#        175098
#        217932
#        256211
#
# Disc length: 4041 seconds
#
# Revision: 2
# Processed by: cddbd v1.5.2PL0 Copyright (c) Steve Scherf et al.
# Submitted via: ExactAudioCopyFreeDBPlugin 1.0
#
DISCID=670fc708
DTITLE=Hook Herrera - I'm Gonna Move
DYEAR=1995
DGENRE=Blues
TTITLE0=Billy Boy (live)
TTITLE1=Elmo's Boogie (live)
TTITLE2=Checkin Up On My Baby (live)
TTITLE3=Gil The Drill (live)
TTITLE4=Thru The Storm (live)
TTITLE5=I'm Gonna Move (live)
TTITLE6=I Don't Play (live)
TTITLE7=D-Jump (live)
EXTD=
EXTT0=
EXTT1=
EXTT2=
EXTT3=
EXTT4=
EXTT5=
EXTT6=
EXTT7=
PLAYORDER=
